<svg width="20" height="20" viewBox="0 0 20 20" fill="none" xmlns="http://www.w3.org/2000/svg">
<path d="M6.625 1C6.625 1 7.75 3.25 10 3.25C12.25 3.25 13.375 1 13.375 1L19 2.125L17.875 6.625H15.625C15.625 6.625 16.75 8.875 16.75 10C16.75 10.9889 15.8331 12.7315 15.625 14.5C15.2976 17.2844 15.625 19 15.625 19H4.375C4.375 19 4.69788 17.2349 4.375 14.5C4.15563 12.6438 3.25 10.9101 3.25 10C3.25 8.875 4.375 6.625 4.375 6.625H2.125L1 2.125L6.625 1Z" stroke="#40BFFF" stroke-width="2" stroke-linecap="round" stroke-linejoin="round"/>
</svg>
