<svg width="19" height="22" viewBox="0 0 19 22" fill="none" xmlns="http://www.w3.org/2000/svg">
<path fill-rule="evenodd" clip-rule="evenodd" d="M9.00001 4C5.66879 4 2.96876 6.70004 2.96876 10.0312V15.2816C2.96876 15.3971 2.94875 15.5117 2.90963 15.6204L2.54791 16.625H15.4521L15.0904 15.6204C15.0513 15.5117 15.0313 15.3971 15.0313 15.2816V10.0312C15.0313 6.70004 12.3312 4 9.00001 4ZM0.968756 10.0312C0.968756 5.59547 4.56422 2 9.00001 2C13.4358 2 17.0313 5.59547 17.0313 10.0312V15.1071L17.8159 17.2862C17.9262 17.5926 17.8804 17.9336 17.6932 18.2C17.5059 18.4664 17.2007 18.625 16.875 18.625H1.12501C0.799353 18.625 0.494096 18.4664 0.306848 18.2C0.119599 17.9336 0.0738154 17.5926 0.184136 17.2862L0.968756 15.1071V10.0312Z" fill="#9098B1"/>
<path fill-rule="evenodd" clip-rule="evenodd" d="M5.625 16.625C6.17728 16.625 6.625 17.0727 6.625 17.625C6.625 18.9368 7.68816 20 9 20C10.3118 20 11.375 18.9368 11.375 17.625C11.375 17.0727 11.8227 16.625 12.375 16.625C12.9273 16.625 13.375 17.0727 13.375 17.625C13.375 20.0414 11.4164 22 9 22C6.58359 22 4.625 20.0414 4.625 17.625C4.625 17.0727 5.07272 16.625 5.625 16.625Z" fill="#9098B1"/>
<circle cx="15" cy="4" r="4" fill="#FB7181"/>
</svg>
