<svg width="24" height="24" viewBox="0 0 24 24" fill="none" xmlns="http://www.w3.org/2000/svg">
<path d="M9.35045 6.8835L9.35295 6.8845C9.40495 6.663 9.59395 6.5 9.83045 6.5H16.5665C16.575 6.5 16.5835 6.4965 16.592 6.497C16.4485 4.1075 14.444 3 12.6755 3H5.93945C5.70245 3 5.51345 3.1675 5.46195 3.3885L5.45945 3.3875L2.51495 16.9065L2.52145 16.907C2.51445 16.939 2.50195 16.9695 2.50195 17.004C2.50195 17.2805 2.72545 17.4995 3.00195 17.4995H7.03745L9.35045 6.8835Z" fill="#1565C0"/>
<path d="M16.5911 6.49707C16.6176 6.93507 16.5886 7.41157 16.4766 7.93807C15.8361 10.9356 13.5206 12.4956 10.6591 12.4956C10.6591 12.4956 8.92408 12.4956 8.50258 12.4956C8.24208 12.4956 8.11908 12.6486 8.06258 12.7656L7.19258 16.7901L7.04008 17.5046H7.03708L6.40558 20.4026L6.41208 20.4031C6.40508 20.4351 6.39258 20.4656 6.39258 20.5001C6.39258 20.7766 6.61608 21.0001 6.89258 21.0001H10.5591L10.5656 20.9951C10.8016 20.9916 10.9891 20.8231 11.0381 20.6011L11.0471 20.5936L11.9531 16.3856C11.9531 16.3856 12.0161 15.9841 12.4381 15.9841C12.8601 15.9841 14.5271 15.9841 14.5271 15.9841C17.3886 15.9841 19.7276 14.4311 20.3686 11.4331C21.0896 8.05307 18.6786 6.50957 16.5911 6.49707Z" fill="#039BE5"/>
<path d="M9.83 6.49975C9.593 6.49975 9.404 6.66275 9.3525 6.88425L9.35 6.88325L8.0625 12.7658C8.119 12.6488 8.242 12.4958 8.5025 12.4958C8.9245 12.4958 10.62 12.4958 10.62 12.4958C13.4815 12.4958 15.836 10.9358 16.4765 7.93825C16.589 7.41175 16.6175 6.93525 16.591 6.49725C16.583 6.49625 16.574 6.49975 16.566 6.49975H9.83Z" fill="#283593"/>
</svg>
